<mxfile host="app.diagrams.net" modified="2023-10-13T10:16:04.232Z" agent="Mozilla/5.0 (Windows NT 10.0; Win64; x64) AppleWebKit/537.36 (KHTML, like Gecko) Chrome/117.0.0.0 Safari/537.36" etag="r4unhGLUsygUjLyBzPQl" version="22.0.4" type="github">
  <diagram name="第 1 页" id="4M4HZLaa6iFDXuhIEwjB">
    <mxGraphModel dx="963" dy="511" grid="1" gridSize="10" guides="1" tooltips="1" connect="1" arrows="1" fold="1" page="1" pageScale="1" pageWidth="827" pageHeight="1169" math="0" shadow="0">
      <root>
        <mxCell id="0" />
        <mxCell id="1" parent="0" />
        <mxCell id="b4rSDZkDvvmOPCsf5r1Y-9" value="企业信息" style="rounded=0;whiteSpace=wrap;html=1;align=center;verticalAlign=top;" vertex="1" parent="1">
          <mxGeometry x="70" y="140" width="160" height="120" as="geometry" />
        </mxCell>
        <mxCell id="b4rSDZkDvvmOPCsf5r1Y-1" value="企业基础数据" style="rounded=1;whiteSpace=wrap;html=1;" vertex="1" parent="1">
          <mxGeometry x="90" y="170" width="120" height="20" as="geometry" />
        </mxCell>
        <mxCell id="b4rSDZkDvvmOPCsf5r1Y-2" value="爬取" style="rounded=1;whiteSpace=wrap;html=1;" vertex="1" parent="1">
          <mxGeometry x="330" y="140" width="20" height="140" as="geometry" />
        </mxCell>
        <mxCell id="b4rSDZkDvvmOPCsf5r1Y-3" value="" style="rounded=1;whiteSpace=wrap;html=1;" vertex="1" parent="1">
          <mxGeometry x="470" y="180" width="120" height="60" as="geometry" />
        </mxCell>
        <mxCell id="b4rSDZkDvvmOPCsf5r1Y-4" value="上报" style="rounded=1;whiteSpace=wrap;html=1;" vertex="1" parent="1">
          <mxGeometry x="330" y="280" width="20" height="120" as="geometry" />
        </mxCell>
        <mxCell id="b4rSDZkDvvmOPCsf5r1Y-6" value="企业涉诉数据" style="rounded=1;whiteSpace=wrap;html=1;" vertex="1" parent="1">
          <mxGeometry x="90" y="190" width="120" height="20" as="geometry" />
        </mxCell>
        <mxCell id="b4rSDZkDvvmOPCsf5r1Y-7" value="企业知识产权数据" style="rounded=1;whiteSpace=wrap;html=1;" vertex="1" parent="1">
          <mxGeometry x="90" y="210" width="120" height="20" as="geometry" />
        </mxCell>
        <mxCell id="b4rSDZkDvvmOPCsf5r1Y-8" value="企业经营数据" style="rounded=1;whiteSpace=wrap;html=1;" vertex="1" parent="1">
          <mxGeometry x="90" y="230" width="120" height="20" as="geometry" />
        </mxCell>
      </root>
    </mxGraphModel>
  </diagram>
</mxfile>
